<svg version="1.1" id="Layer_1" xmlns="http://www.w3.org/2000/svg" xmlns:xlink="http://www.w3.org/1999/xlink" x="0px" y="0px"
	 width="100%" viewBox="0 0 1024 1024" enable-background="new 0 0 1024 1024" xml:space="preserve">
<path fill="#000000" opacity="1.000000" stroke="none" 
	d="
M402.757874,781.401062 
	C351.012939,765.299194 308.649475,736.965942 279.780731,690.696960 
	C262.945312,663.714294 252.510101,634.145203 246.685699,602.920044 
	C242.321808,579.524963 241.461777,555.944031 243.794754,532.323364 
	C247.501190,494.796600 258.828308,459.505524 276.066193,426.031586 
	C289.010498,400.895233 304.343262,377.316345 322.824554,355.940460 
	C356.816620,316.624512 396.754883,284.996429 444.455719,263.683533 
	C474.142273,250.419510 505.131409,241.492233 537.417297,238.007050 
	C576.997864,233.734421 615.695923,237.351089 651.542358,256.364990 
	C679.279663,271.077667 701.444336,291.620178 712.026062,322.038818 
	C721.292847,348.677490 719.093628,374.854004 705.024597,399.567474 
	C699.563477,409.160309 691.943970,415.852112 679.834778,415.426147 
	C671.895630,415.146851 666.181824,411.521576 662.365112,404.850220 
	C658.750244,398.531616 656.983337,391.484192 656.763367,384.318176 
	C655.641846,347.776703 630.166992,318.391541 602.454895,308.420776 
	C575.591553,298.755432 548.598816,297.821564 521.037842,304.794586 
	C480.773621,314.981537 444.953369,333.847626 413.110962,360.207550 
	C371.045349,395.030396 341.197693,438.463776 323.492889,490.162720 
	C314.454163,516.556396 309.637878,543.717163 311.513885,571.598816 
	C314.075867,609.676514 328.015625,643.408142 353.554535,671.899292 
	C385.813660,707.887451 426.398926,728.910950 473.927551,736.344116 
	C492.869812,739.306519 511.987091,738.865295 531.176697,737.165710 
	C548.920959,735.594238 566.295715,731.366577 584.112366,730.662170 
	C585.110535,730.622681 586.111816,730.651978 587.111511,730.659546 
	C590.983276,730.689026 594.587646,731.549805 596.262207,735.439758 
	C597.980896,739.432312 595.138489,742.207092 592.673584,744.555115 
	C586.836853,750.114746 579.761047,753.941162 572.722534,757.738159 
	C547.892151,771.133118 521.583252,780.460632 493.719727,784.786560 
	C463.392181,789.494934 433.072205,789.984985 402.757874,781.401062 
z"/>
<path fill="#000000" opacity="1.000000" stroke="none" 
	d="
M728.780518,562.731995 
	C704.220215,602.654968 670.458252,632.090881 629.935181,654.244995 
	C608.215698,666.118958 585.581665,675.703491 561.474915,681.492920 
	C539.391418,686.796387 517.000854,690.013794 494.237793,688.251892 
	C451.897125,684.974670 415.871216,668.263428 387.483215,636.330505 
	C372.594879,619.583008 365.624878,599.201111 362.706207,577.358704 
	C355.266602,521.683716 375.094238,474.213165 408.382721,431.485199 
	C430.131348,403.569397 457.349670,381.664825 489.163513,365.804382 
	C507.640625,356.592773 527.351379,351.994904 547.922607,351.860413 
	C558.540588,351.790924 569.118103,353.172424 579.395752,356.462036 
	C609.904724,366.227112 622.016846,394.065796 610.889587,423.312836 
	C603.742737,442.097839 591.252197,456.850037 574.382263,467.724884 
	C567.846863,471.937744 560.752563,474.847595 552.643921,472.323425 
	C546.921631,470.542084 545.048523,467.736176 544.589783,461.801514 
	C544.057861,454.919769 546.395508,448.687012 548.132812,442.281555 
	C552.882141,424.771149 543.005798,414.175140 524.917725,416.616089 
	C509.576691,418.686340 496.821198,425.900238 485.385345,435.532776 
	C458.345703,458.308594 440.916870,487.205719 433.995636,521.833496 
	C430.459869,539.523438 431.861633,557.318970 439.648041,574.090332 
	C450.196808,596.811646 468.593719,609.254822 492.689117,613.531677 
	C525.991455,619.442810 557.916992,613.509521 588.815857,600.872375 
	C632.120361,583.161438 667.435059,554.521973 698.633789,520.244446 
	C710.209534,507.526337 719.850769,493.293274 730.860535,480.143951 
	C733.847290,476.576721 736.730957,472.836914 741.112061,470.795990 
	C748.506714,467.351227 754.596741,470.872284 755.337646,478.973907 
	C756.962158,496.737335 751.582092,513.217468 745.607056,529.460205 
	C741.349854,541.033142 735.432312,551.895081 728.780518,562.731995 
z"/>
<path fill="#000000" opacity="1.000000" stroke="none" 
	d="
M770.931641,727.014038 
	C757.938782,731.943787 749.460205,740.574768 745.612000,753.705688 
	C744.305969,758.162048 742.464050,762.467407 740.754333,766.797302 
	C739.682556,769.511353 738.156189,772.010437 734.845093,772.180847 
	C731.337646,772.361450 730.063293,769.621826 728.924011,766.989441 
	C726.018311,760.275452 723.235352,753.508179 720.312988,746.801575 
	C716.970703,739.131104 711.378540,733.703186 703.703247,730.359863 
	C697.145142,727.503296 690.630737,724.546631 684.096985,721.634216 
	C681.229126,720.355835 678.706177,718.664734 678.806396,715.122803 
	C678.903625,711.685364 681.744019,710.612671 684.349365,709.433411 
	C690.562622,706.620850 696.682617,703.582642 702.991455,701.005676 
	C712.943359,696.940430 718.987427,689.420959 722.746155,679.707581 
	C724.847351,674.277771 726.868408,668.816589 729.006897,663.401672 
	C730.089661,660.660095 730.792908,657.147217 734.490967,657.060669 
	C738.192993,656.974060 739.095947,660.339783 740.171143,663.140991 
	C742.614136,669.506348 744.932556,675.921570 747.487244,682.241516 
	C750.470398,689.621643 755.459595,695.267761 762.750427,698.661438 
	C769.984741,702.028870 777.271729,705.283203 784.539185,708.579285 
	C787.232178,709.800659 789.479492,711.312195 789.551270,714.728577 
	C789.626953,718.332886 786.872192,719.502869 784.390076,720.746155 
	C780.078979,722.905701 775.650879,724.831665 770.931641,727.014038 
z"/>
<path fill="#000000" opacity="1.000000" stroke="none" 
	d="
M647.087769,184.722076 
	C644.573608,180.368149 646.987488,178.038681 650.168396,176.476517 
	C656.586792,173.324417 663.060974,170.244339 669.686035,167.564362 
	C679.569458,163.566345 685.320190,156.182114 688.615906,146.347595 
	C690.356262,141.154190 692.497864,136.087051 694.639526,131.039795 
	C695.711548,128.513214 697.336914,126.420845 700.617004,126.659256 
	C703.597046,126.875870 704.875122,128.887253 705.869995,131.303146 
	C708.843811,138.524734 711.071045,146.029312 714.540100,153.073715 
	C717.391235,158.863312 721.616211,163.138626 727.261536,165.984802 
	C734.243713,169.504974 741.352234,172.774445 748.403259,176.158340 
	C751.183044,177.492416 753.930664,179.072342 753.865479,182.589035 
	C753.800720,186.082535 750.994080,187.677963 748.233765,188.959869 
	C742.201660,191.761215 736.131653,194.483612 730.038940,197.150909 
	C721.347900,200.955627 715.291992,207.206421 711.996887,216.133148 
	C710.326538,220.658234 708.745178,225.231247 706.771362,229.624344 
	C705.263611,232.980133 704.548279,237.778259 699.842896,237.856628 
	C695.078064,237.935989 694.280151,233.171997 692.826050,229.786667 
	C690.991943,225.516617 689.465820,221.099243 688.047913,216.668274 
	C684.275146,204.878708 675.468140,198.334137 664.712524,193.578903 
	C658.808289,190.968567 652.531372,189.062988 647.087769,184.722076 
z"/>
<path fill="#000000" opacity="1.000000" stroke="none" 
	d="
M298.411224,281.411530 
	C295.780731,287.388855 293.313812,293.032837 290.844238,298.675659 
	C289.655090,301.392761 288.911652,304.909546 285.290375,305.001740 
	C281.764496,305.091553 281.172943,301.566650 280.088959,299.056274 
	C277.515625,293.096649 275.107880,287.065674 272.619507,281.069214 
	C270.110748,275.023529 266.153473,270.361938 260.324371,267.125092 
	C253.600204,263.391174 246.528458,260.475037 239.518692,257.387512 
	C236.934326,256.249207 233.846542,255.059738 234.006714,251.678940 
	C234.153915,248.571823 237.246948,247.762405 239.650131,246.664474 
	C243.739731,244.796051 247.719131,242.564606 251.974457,241.203751 
	C264.510773,237.194687 270.955811,227.899399 274.904358,216.113464 
	C276.489410,211.382233 278.427948,206.765808 280.308197,202.138809 
	C281.143250,200.083771 282.321381,198.151596 284.970947,198.313538 
	C287.426453,198.463593 288.783295,200.060776 289.645538,202.239761 
	C292.766693,210.127228 295.548187,218.145004 299.390869,225.748154 
	C302.060638,231.030655 305.775208,235.021591 311.200104,237.430969 
	C318.049438,240.472992 324.878632,243.560501 331.705872,246.651886 
	C333.994415,247.688141 336.780334,248.719315 336.873047,251.527313 
	C336.978149,254.709900 333.854065,255.609375 331.509552,256.773163 
	C325.843353,259.585754 320.141693,262.327942 314.432770,265.053314 
	C307.218048,268.497559 302.057617,273.952454 298.411224,281.411530 
z"/>
<path fill="#000000" opacity="1.000000" stroke="none" 
	d="
M429.709717,201.861603 
	C432.668060,219.433899 420.170624,231.327011 404.682495,226.219955 
	C396.293091,223.453644 390.733826,214.468857 391.817749,205.428162 
	C393.020477,195.396240 399.809631,188.420975 409.114502,187.657181 
	C419.004547,186.845352 426.775085,192.090942 429.709717,201.861603 
z"/>
<path fill="#000000" opacity="1.000000" stroke="none" 
	d="
M182.499969,366.848022 
	C187.363800,358.571228 195.671936,354.930695 204.324860,357.002197 
	C212.425369,358.941437 218.119583,366.147888 218.433090,374.857239 
	C218.796158,384.943970 214.475662,392.223206 205.820053,394.559937 
	C198.495514,396.537323 190.976959,396.432983 185.476120,390.144409 
	C179.544189,383.362946 179.161652,375.432404 182.499969,366.848022 
z"/>
<path fill="#000000" opacity="1.000000" stroke="none" 
	d="
M792.321228,587.525818 
	C798.713013,579.784607 806.509094,577.650146 814.654785,581.158752 
	C822.039795,584.339600 826.985535,593.354919 825.862000,601.587708 
	C824.573730,611.026917 818.782837,616.834717 809.346252,618.151978 
	C797.415649,619.817322 787.094360,608.289978 789.298523,595.773254 
	C789.792847,592.966370 790.758301,590.333923 792.321228,587.525818 
z"/>
<path fill="#000000" opacity="1.000000" stroke="none" 
	d="
M629.760254,841.944641 
	C622.253540,846.321716 614.840454,847.233032 607.880615,842.129639 
	C601.683105,837.585388 599.750732,830.852173 601.072388,823.453186 
	C602.479187,815.577515 608.134949,810.197144 615.645630,808.848389 
	C622.607056,807.598328 630.444519,811.204346 634.048157,817.315369 
	C637.989990,824.000000 637.669800,832.587769 633.173950,838.493469 
	C632.274902,839.674438 631.106873,840.650635 629.760254,841.944641 
z"/>
</svg>